<?xml version="1.0" encoding="UTF-8" standalone="no"?> <svg width="64" height="64" viewBox="0 0 64 64" fill="none" xmlns="http://www.w3.org/2000/svg">
<path d="M39 17.3599H24.08C23.8147 17.3599 23.5604 17.2546 23.3728 17.0671C23.1853 16.8795 23.08 16.6252 23.08 16.3599V12.7899C23.0826 11.3984 23.6366 10.0645 24.6206 9.08056C25.6046 8.09656 26.9384 7.54259 28.33 7.53995H34.71C35.4028 7.53467 36.0897 7.66657 36.7313 7.92804C37.3729 8.18951 37.9564 8.57539 38.4482 9.06342C38.9399 9.55146 39.3302 10.132 39.5965 10.7716C39.8629 11.4112 40 12.0971 40 12.7899V16.3599C40 16.6252 39.8946 16.8795 39.7071 17.0671C39.5195 17.2546 39.2652 17.3599 39 17.3599ZM25.13 15.3599H38V12.7899C38 11.9297 37.6589 11.1046 37.0516 10.4954C36.4443 9.88617 35.6202 9.54259 34.76 9.53995H28.33C27.4688 9.54258 26.6437 9.88584 26.0348 10.4948C25.4259 11.1037 25.0826 11.9288 25.08 12.7899L25.13 15.3599Z" fill="#35495E"/>
<path d="M58.58 33.3999L53.42 18.6699C53.0799 17.7035 52.4477 16.8667 51.611 16.2755C50.7743 15.6843 49.7745 15.3678 48.75 15.3699H15.25C14.2255 15.3678 13.2257 15.6843 12.389 16.2755C11.5523 16.8667 10.9201 17.7035 10.58 18.6699L5.42002 33.3999C5.33198 33.6454 5.34335 33.9156 5.4517 34.1529C5.56005 34.3901 5.75681 34.5756 6.00002 34.6699C7.18002 35.0299 7.37002 33.6699 7.67002 32.9199L18.3 34.7799C18.3 34.7799 54.24 34.4199 54.43 34.3699C54.62 34.3199 55.59 33.6899 56.43 33.1899L56.73 34.0599C56.848 34.2603 57.0321 34.4133 57.2507 34.4926C57.4693 34.5718 57.7087 34.5725 57.9277 34.4943C58.1468 34.4162 58.3317 34.2642 58.4507 34.0644C58.5698 33.8647 58.6155 33.6297 58.58 33.3999V33.3999Z" fill="url(#paint0_linear)"/>
<path d="M57.9999 37.15C57.8415 37.1045 57.6748 37.0955 57.5124 37.1237C57.35 37.1519 57.1961 37.2166 57.0623 37.3128C56.9285 37.4091 56.8183 37.5344 56.74 37.6794C56.6616 37.8245 56.6171 37.9854 56.6099 38.15L6.69994 37.16C6.52341 37.098 6.33303 37.0868 6.15044 37.1276C5.96784 37.1684 5.80035 37.2596 5.66701 37.3909C5.53367 37.5221 5.43983 37.6881 5.39616 37.8701C5.35248 38.052 5.36072 38.2425 5.41994 38.42L10.5799 53.15C10.9276 54.1116 11.5616 54.9435 12.3966 55.5335C13.2317 56.1236 14.2275 56.4435 15.2499 56.45H48.7499C49.7724 56.4435 50.7682 56.1236 51.6033 55.5335C52.4383 54.9435 53.0723 54.1116 53.4199 53.15L58.5799 38.42C58.668 38.1745 58.6566 37.9043 58.5483 37.6671C58.4399 37.4298 58.2431 37.2443 57.9999 37.15V37.15Z" fill="url(#paint1_linear)"/>
<path d="M58 32.74H43.4C43.1908 32.7422 42.9876 32.81 42.819 32.9338C42.6504 33.0576 42.5248 33.2311 42.46 33.43H21.53C21.4652 33.2311 21.3396 33.0576 21.171 32.9338C21.0023 32.81 20.7992 32.7422 20.59 32.74H5.99999C5.20434 32.74 4.44128 33.0561 3.87867 33.6187C3.31606 34.1813 2.99999 34.9443 2.99999 35.74C2.96577 36.1578 3.0175 36.5783 3.15198 36.9753C3.28646 37.3724 3.50085 37.7378 3.78193 38.0488C4.06301 38.3599 4.40483 38.6101 4.7863 38.784C5.16777 38.9579 5.58083 39.0518 5.99999 39.06H20C20.1775 39.0559 20.3507 39.0047 20.5018 38.9116C20.653 38.8184 20.7766 38.6867 20.86 38.53H43.08C43.1634 38.6867 43.287 38.8184 43.4381 38.9116C43.5893 39.0047 43.7625 39.0559 43.94 39.06H58C62 39 62 32.82 58 32.74Z" fill="url(#paint2_linear)"/>
<path d="M28.43 25.29L21 20.5C20.6749 20.2803 20.2924 20.1612 19.9001 20.1573C19.5078 20.1535 19.123 20.2651 18.7936 20.4782C18.4643 20.6914 18.2049 20.9967 18.0478 21.3562C17.8907 21.7157 17.8427 22.1134 17.91 22.5L19.68 33.5C19.7463 33.7585 19.9126 33.9802 20.1423 34.1162C20.372 34.2521 20.6464 34.2913 20.905 34.225C21.1635 34.1587 21.3852 33.9923 21.5212 33.7626C21.6571 33.5329 21.6963 33.2585 21.63 33L21.39 31.51L26.66 26.51L27.32 26.93C27.5365 27.0358 27.7839 27.0599 28.0167 26.9978C28.2496 26.9357 28.4522 26.7916 28.5872 26.5921C28.7223 26.3925 28.7808 26.1509 28.7519 25.9116C28.723 25.6724 28.6087 25.4516 28.43 25.29V25.29Z" fill="url(#paint3_linear)"/>
<path d="M45.1799 20.4998C44.8534 20.2848 44.4709 20.1702 44.0799 20.1702C43.6889 20.1702 43.3065 20.2848 42.9799 20.4998L35.5599 25.2998C35.3345 25.4444 35.1757 25.6726 35.1185 25.9342C35.0613 26.1958 35.1104 26.4694 35.2549 26.6948C35.3995 26.9203 35.6277 27.0791 35.8893 27.1362C36.1509 27.1934 36.4245 27.1444 36.6499 26.9998L37.0099 26.7698L42.5899 31.6098L42.3599 32.9998C42.3232 33.1272 42.3118 33.2606 42.3266 33.3924C42.3414 33.5241 42.382 33.6517 42.446 33.7677C42.5101 33.8838 42.5964 33.9861 42.7 34.0688C42.8037 34.1516 42.9225 34.2131 43.0499 34.2498C43.1773 34.2866 43.3107 34.2979 43.4424 34.2831C43.5742 34.2684 43.7018 34.2278 43.8178 34.1637C43.9339 34.0996 44.0362 34.0133 44.1189 33.9097C44.2017 33.8061 44.2632 33.6872 44.2999 33.5598L46.0699 22.5598C46.1446 22.1668 46.0997 21.7605 45.9411 21.3933C45.7824 21.026 45.5173 20.7148 45.1799 20.4998V20.4998Z" fill="url(#paint4_linear)"/>
<path d="M32 24.4099C28.5522 24.4099 25.2456 25.7796 22.8076 28.2175C20.3696 30.6555 19 33.9621 19 37.4099C19.71 54.6199 44.24 54.6199 45 37.4099C45 33.9621 43.6304 30.6555 41.1924 28.2175C38.7544 25.7796 35.4478 24.4099 32 24.4099V24.4099Z" fill="url(#paint5_linear)"/>
<path d="M39.91 33.78C39.91 32.8994 39.5602 32.055 38.9376 31.4324C38.315 30.8097 37.4705 30.46 36.59 30.46C35.7095 30.46 34.865 30.8097 34.2424 31.4324C33.6198 32.055 33.27 32.8994 33.27 33.78C33.27 34.0452 33.3754 34.2995 33.5629 34.4871C33.7504 34.6746 34.0048 34.78 34.27 34.78C34.5352 34.78 34.7896 34.6746 34.9771 34.4871C35.1647 34.2995 35.27 34.0452 35.27 33.78C35.27 33.4299 35.4091 33.0941 35.6566 32.8466C35.9042 32.599 36.2399 32.46 36.59 32.46C36.9401 32.46 37.2759 32.599 37.5234 32.8466C37.7709 33.0941 37.91 33.4299 37.91 33.78C37.91 34.0452 38.0154 34.2995 38.2029 34.4871C38.3904 34.6746 38.6448 34.78 38.91 34.78C39.1752 34.78 39.4296 34.6746 39.6171 34.4871C39.8047 34.2995 39.91 34.0452 39.91 33.78Z" fill="url(#paint6_linear)"/>
<path d="M28.73 33.78C28.73 34.0452 28.8353 34.2995 29.0229 34.4871C29.2104 34.6746 29.4647 34.78 29.73 34.78C29.9952 34.78 30.2495 34.6746 30.4371 34.4871C30.6246 34.2995 30.73 34.0452 30.73 33.78C30.73 32.8994 30.3802 32.055 29.7576 31.4324C29.1349 30.8097 28.2905 30.46 27.41 30.46C26.5294 30.46 25.685 30.8097 25.0624 31.4324C24.4397 32.055 24.09 32.8994 24.09 33.78C24.09 34.0452 24.1953 34.2995 24.3829 34.4871C24.5704 34.6746 24.8247 34.78 25.09 34.78C25.3552 34.78 25.6095 34.6746 25.7971 34.4871C25.9846 34.2995 26.09 34.0452 26.09 33.78C26.09 33.4299 26.229 33.0941 26.4766 32.8466C26.7241 32.599 27.0599 32.46 27.41 32.46C27.7601 32.46 28.0958 32.599 28.3433 32.8466C28.5909 33.0941 28.73 33.4299 28.73 33.78V33.78Z" fill="url(#paint7_linear)"/>
<path d="M36.11 38.3099C35.8448 38.3099 35.5904 38.4153 35.4029 38.6028C35.2153 38.7904 35.11 39.0447 35.11 39.3099C35.1257 39.5543 35.0555 39.7965 34.9115 39.9946C34.7676 40.1927 34.5589 40.3343 34.3216 40.3948C34.0843 40.4553 33.8333 40.431 33.6121 40.326C33.3908 40.221 33.2132 40.042 33.11 39.8199C33.3 39.6599 34.11 38.2099 34.23 37.9799C34.3676 37.7376 34.4399 37.4636 34.4399 37.1849C34.4399 36.9062 34.3676 36.6323 34.23 36.3899C33.69 35.2899 32.03 35.6399 31.07 35.5899C30.7915 35.5968 30.5197 35.6763 30.2814 35.8204C30.043 35.9646 29.8465 36.1685 29.7111 36.4119C29.5758 36.6554 29.5063 36.9299 29.5096 37.2084C29.5129 37.4869 29.5889 37.7598 29.73 37.9999C30.067 38.6346 30.441 39.249 30.85 39.8399C30.7837 40.1051 30.6147 40.3332 30.3803 40.4738C30.1459 40.6145 29.8652 40.6562 29.6 40.5899C29.3348 40.5236 29.1067 40.3547 28.9661 40.1203C28.8254 39.8858 28.7837 39.6051 28.85 39.3399C28.85 39.0747 28.7446 38.8204 28.5571 38.6328C28.3695 38.4453 28.1152 38.3399 27.85 38.3399C27.5848 38.3399 27.3304 38.4453 27.1429 38.6328C26.9553 38.8204 26.85 39.0747 26.85 39.3399C26.8528 40.0636 27.1129 40.7626 27.5837 41.3122C28.0545 41.8618 28.7053 42.226 29.42 42.3399C29.6999 42.7565 30.078 43.0979 30.5209 43.334C30.9639 43.57 31.4581 43.6935 31.96 43.6935C32.4619 43.6935 32.9561 43.57 33.399 43.334C33.842 43.0979 34.2201 42.7565 34.5 42.3399C35.2138 42.2241 35.8635 41.8593 36.3339 41.3102C36.8044 40.761 37.0651 40.063 37.07 39.3399C37.0781 39.0763 36.9818 38.8202 36.802 38.6273C36.6222 38.4344 36.3735 38.3203 36.11 38.3099Z" fill="url(#paint8_linear)"/>
<path d="M40.09 37.8198C39.8247 37.8198 39.5704 37.9252 39.3829 38.1127C39.1953 38.3003 39.09 38.5546 39.09 38.8198C39.09 39.085 39.1953 39.3394 39.3829 39.5269C39.5704 39.7145 39.8247 39.8198 40.09 39.8198C40.8175 39.8198 41.5379 39.9631 42.21 40.2415C42.8822 40.5199 43.4929 40.928 44.0073 41.4425C44.5218 41.9569 44.9298 42.5676 45.2083 43.2398C45.4867 43.9119 45.63 44.6323 45.63 45.3598C45.63 45.625 45.7353 45.8794 45.9229 46.0669C46.1104 46.2545 46.3648 46.3598 46.63 46.3598C46.8952 46.3598 47.1495 46.2545 47.3371 46.0669C47.5246 45.8794 47.63 45.625 47.63 45.3598C47.6273 43.3609 46.8321 41.4446 45.4186 40.0312C44.0052 38.6177 42.0889 37.8225 40.09 37.8198V37.8198Z" fill="url(#paint9_linear)"/>
<path d="M40.09 40.9099C39.8247 40.9099 39.5704 41.0153 39.3829 41.2028C39.1953 41.3903 39.09 41.6447 39.09 41.9099C39.09 42.1751 39.1953 42.4295 39.3829 42.617C39.5704 42.8046 39.8247 42.9099 40.09 42.9099C41.71 42.9099 43.02 44.6899 43.02 46.9099C43.02 47.1751 43.1253 47.4295 43.3129 47.617C43.5004 47.8046 43.7547 47.9099 44.02 47.9099C44.2852 47.9099 44.5395 47.8046 44.7271 47.617C44.9146 47.4295 45.02 47.1751 45.02 46.9099C45 43.5899 42.81 40.9099 40.09 40.9099Z" fill="url(#paint10_linear)"/>
<path d="M23.91 37.8198C21.9111 37.8225 19.9948 38.6177 18.5813 40.0312C17.1679 41.4446 16.3726 43.3609 16.37 45.3598C16.37 45.625 16.4754 45.8794 16.6629 46.0669C16.8504 46.2545 17.1048 46.3598 17.37 46.3598C17.6352 46.3598 17.8896 46.2545 18.0771 46.0669C18.2646 45.8794 18.37 45.625 18.37 45.3598C18.37 43.8905 18.9537 42.4814 19.9926 41.4425C21.0316 40.4035 22.4407 39.8198 23.91 39.8198C24.1752 39.8198 24.4296 39.7145 24.6171 39.5269C24.8046 39.3394 24.91 39.085 24.91 38.8198C24.91 38.5546 24.8046 38.3003 24.6171 38.1127C24.4296 37.9252 24.1752 37.8198 23.91 37.8198Z" fill="url(#paint11_linear)"/>
<path d="M23.91 40.9099C21.19 40.9099 18.98 43.5899 18.98 46.9099C18.98 47.1751 19.0853 47.4295 19.2729 47.617C19.4604 47.8046 19.7148 47.9099 19.98 47.9099C20.2452 47.9099 20.4996 47.8046 20.6871 47.617C20.8746 47.4295 20.98 47.1751 20.98 46.9099C20.98 44.7199 22.29 42.9099 23.91 42.9099C24.1752 42.9099 24.4296 42.8046 24.6171 42.617C24.8046 42.4295 24.91 42.1751 24.91 41.9099C24.91 41.6447 24.8046 41.3903 24.6171 41.2028C24.4296 41.0153 24.1752 40.9099 23.91 40.9099Z" fill="url(#paint12_linear)"/>
<defs>
<linearGradient id="paint0_linear" x1="5.37002" y1="25.0699" x2="58.64" y2="25.0699" gradientUnits="userSpaceOnUse">
<stop stop-color="#00ADEE"/>
<stop offset="0.4" stop-color="#0070B4"/>
<stop offset="1" stop-color="#2E3191"/>
</linearGradient>
<linearGradient id="paint1_linear" x1="290.896" y1="942.133" x2="3128.59" y2="942.133" gradientUnits="userSpaceOnUse">
<stop stop-color="#00ADEE"/>
<stop offset="0.4" stop-color="#0070B4"/>
<stop offset="1" stop-color="#2E3191"/>
</linearGradient>
<linearGradient id="paint2_linear" x1="2.98999" y1="35.92" x2="61" y2="35.92" gradientUnits="userSpaceOnUse">
<stop stop-color="#141C2C"/>
<stop offset="0.84" stop-color="#090D14"/>
<stop offset="1" stop-color="#070A0F"/>
</linearGradient>
<linearGradient id="paint3_linear" x1="17.89" y1="27.26" x2="28.88" y2="27.26" gradientUnits="userSpaceOnUse">
<stop stop-color="#B5B5B5"/>
<stop offset="0.49" stop-color="#9D9D9D"/>
<stop offset="1" stop-color="#808080"/>
</linearGradient>
<linearGradient id="paint4_linear" x1="421.652" y1="405.062" x2="542.651" y2="405.062" gradientUnits="userSpaceOnUse">
<stop stop-color="#B5B5B5"/>
<stop offset="0.49" stop-color="#9D9D9D"/>
<stop offset="1" stop-color="#808080"/>
</linearGradient>
<linearGradient id="paint5_linear" x1="19.02" y1="37.3499" x2="44.97" y2="37.3499" gradientUnits="userSpaceOnUse">
<stop stop-color="#C6C6C6"/>
<stop offset="0.42" stop-color="#AEAEAE"/>
<stop offset="1" stop-color="#878787"/>
</linearGradient>
<linearGradient id="paint6_linear" x1="254.183" y1="171.422" x2="298.272" y2="171.422" gradientUnits="userSpaceOnUse">
<stop stop-color="#141C2C"/>
<stop offset="0.84" stop-color="#090D14"/>
<stop offset="1" stop-color="#070A0F"/>
</linearGradient>
<linearGradient id="paint7_linear" x1="184.048" y1="171.421" x2="228.137" y2="171.421" gradientUnits="userSpaceOnUse">
<stop stop-color="#141C2C"/>
<stop offset="0.84" stop-color="#090D14"/>
<stop offset="1" stop-color="#070A0F"/>
</linearGradient>
<linearGradient id="paint8_linear" x1="301.679" y1="357.321" x2="406.132" y2="357.321" gradientUnits="userSpaceOnUse">
<stop stop-color="#141C2C"/>
<stop offset="0.84" stop-color="#090D14"/>
<stop offset="1" stop-color="#070A0F"/>
</linearGradient>
<linearGradient id="paint9_linear" x1="373.089" y1="397.268" x2="445.85" y2="397.268" gradientUnits="userSpaceOnUse">
<stop stop-color="#141C2C"/>
<stop offset="0.84" stop-color="#090D14"/>
<stop offset="1" stop-color="#070A0F"/>
</linearGradient>
<linearGradient id="paint10_linear" x1="271.012" y1="351.71" x2="306.059" y2="351.71" gradientUnits="userSpaceOnUse">
<stop stop-color="#141C2C"/>
<stop offset="0.84" stop-color="#090D14"/>
<stop offset="1" stop-color="#070A0F"/>
</linearGradient>
<linearGradient id="paint11_linear" x1="156.17" y1="397.268" x2="228.931" y2="397.268" gradientUnits="userSpaceOnUse">
<stop stop-color="#141C2C"/>
<stop offset="0.84" stop-color="#090D14"/>
<stop offset="1" stop-color="#070A0F"/>
</linearGradient>
<linearGradient id="paint12_linear" x1="131.531" y1="351.71" x2="166.578" y2="351.71" gradientUnits="userSpaceOnUse">
<stop stop-color="#141C2C"/>
<stop offset="0.84" stop-color="#090D14"/>
<stop offset="1" stop-color="#070A0F"/>
</linearGradient>
</defs>
</svg>
